<svg version="1.1" id="Layer_1" xmlns="http://www.w3.org/2000/svg" xmlns:xlink="http://www.w3.org/1999/xlink" x="0px" y="0px"
	 width="100%" viewBox="0 0 1557 1853" enable-background="new 0 0 1557 1853" xml:space="preserve">
<path fill="#F7C80E" opacity="1.000000" stroke="none" 
	d="
M1.000000,155.000000 
	C1.000000,143.307495 1.000000,131.615005 1.339658,119.783859 
	C2.533955,115.912407 3.229454,112.134697 4.268022,108.453789 
	C13.922866,74.234901 31.972729,45.942623 62.276142,26.260368 
	C67.976761,22.557781 73.130310,17.947474 79.026100,14.625255 
	C89.447571,8.752864 100.909843,6.843905 112.867035,6.855952 
	C117.762062,6.860884 123.126633,6.292777 126.000000,1.000000 
	C477.359161,1.000000 828.718323,1.000000 1180.199219,1.286227 
	C1186.251587,15.325311 1189.376099,29.720741 1189.982666,44.654396 
	C1190.666992,61.500267 1187.611206,77.906670 1183.949463,94.238205 
	C1182.950928,98.691811 1180.835205,102.159637 1176.210815,103.300545 
	C1169.332031,104.997627 1162.457642,107.071518 1155.457520,107.806358 
	C1149.629639,108.418144 1143.620483,107.006874 1137.697021,107.061661 
	C1120.435303,107.221306 1103.176147,107.924278 1085.916016,107.926842 
	C1068.989258,107.929359 1052.063599,107.172256 1035.135254,107.040489 
	C1013.637817,106.873161 992.137451,106.889389 970.639465,107.023926 
	C930.713501,107.273781 890.788330,107.658379 850.863220,108.034134 
	C849.447083,108.047455 848.040466,108.590652 846.621216,108.840157 
	C838.109558,110.336494 835.372192,117.990601 830.729858,123.646927 
	C825.099854,130.506622 825.254089,138.728867 832.666931,145.462921 
	C840.082581,152.199493 846.640808,159.957474 853.065369,167.690994 
	C865.911316,183.154495 878.619873,198.742615 890.994812,214.584183 
	C904.935120,232.429565 918.918396,250.274841 932.027100,268.728180 
	C949.779541,293.718506 968.115417,318.357910 982.430420,345.648804 
	C985.412109,351.333160 989.626465,356.472351 996.101440,359.130646 
	C997.966614,359.896423 999.498901,361.781219 1000.858032,363.422729 
	C1011.606018,376.403778 1022.401001,389.349304 1032.930786,402.506470 
	C1042.303955,414.218445 1051.298218,426.232941 1060.567261,438.029297 
	C1069.649536,449.587982 1078.851074,461.053101 1088.030762,472.534821 
	C1096.193970,482.745087 1104.543213,492.810150 1112.550293,503.140991 
	C1123.127930,516.788330 1133.459473,530.626770 1143.883179,544.393250 
	C1158.537598,563.747192 1173.223389,583.077454 1187.814087,602.479370 
	C1201.510498,620.692139 1215.029541,639.038391 1228.756958,657.227600 
	C1243.678711,676.999512 1258.780884,696.635010 1273.746338,716.373901 
	C1283.779419,729.607117 1293.699951,742.925659 1303.692383,756.189819 
	C1315.841797,772.317017 1327.992798,788.443176 1340.183350,804.539246 
	C1348.843994,815.974182 1357.522095,827.396484 1366.280029,838.756775 
	C1379.128784,855.423523 1392.122314,871.978821 1404.928467,888.677979 
	C1415.032959,901.854492 1424.922852,915.195251 1434.953125,928.428894 
	C1448.932129,946.872253 1463.566528,964.855164 1476.813477,983.808777 
	C1497.090576,1012.821045 1515.299316,1043.077637 1528.162964,1076.312256 
	C1533.227783,1089.397705 1537.165283,1102.651367 1538.998535,1116.541504 
	C1540.706177,1129.480103 1541.823242,1142.531860 1544.268311,1155.329712 
	C1547.901489,1174.346313 1551.467896,1193.127808 1551.294678,1212.775024 
	C1550.968628,1249.785645 1549.505127,1286.845581 1552.891846,1323.842529 
	C1554.476807,1341.157715 1551.130371,1358.155640 1547.530151,1375.057495 
	C1544.488647,1389.337036 1540.783813,1403.595215 1539.356934,1418.058472 
	C1538.327026,1428.497925 1537.459717,1438.828491 1535.061157,1449.073853 
	C1530.275024,1469.517944 1523.187012,1489.221680 1513.408813,1507.640015 
	C1504.536987,1524.351318 1493.822144,1540.121704 1483.338745,1555.921265 
	C1479.159546,1562.219971 1473.692261,1567.752808 1468.332886,1573.160156 
	C1458.835693,1582.741943 1448.575562,1591.590332 1439.375244,1601.437622 
	C1430.328613,1611.120361 1422.761353,1622.208130 1413.523926,1631.683960 
	C1403.062500,1642.415161 1391.904175,1652.581177 1380.252930,1662.009399 
	C1365.201294,1674.189209 1349.447510,1685.511841 1333.833252,1696.981812 
	C1322.045166,1705.641113 1309.534302,1713.376953 1298.203125,1722.580078 
	C1286.821167,1731.824585 1274.982178,1739.549805 1260.788940,1743.740601 
	C1245.750732,1748.180664 1230.921265,1753.327393 1215.609253,1758.119141 
	C1205.199341,1762.017822 1195.266357,1761.217896 1184.781372,1756.431641 
	C1185.958618,1762.215942 1182.925903,1764.336914 1179.195068,1765.266602 
	C1171.918213,1767.079834 1164.592407,1769.055176 1157.169556,1769.812012 
	C1150.972778,1770.443970 1144.608643,1769.186768 1138.318359,1769.184448 
	C885.102783,1769.093262 631.887207,1769.035156 378.671661,1769.042480 
	C365.926514,1769.042847 356.222198,1764.861450 351.905945,1751.573853 
	C351.652069,1749.239136 351.047180,1747.331055 351.042328,1745.421387 
	C350.978851,1720.423462 350.740723,1695.420410 351.211273,1670.431274 
	C351.309601,1665.208374 353.231232,1659.533203 355.870453,1654.966797 
	C359.263397,1649.096313 366.059418,1648.468018 372.305969,1648.032349 
	C383.484741,1647.252808 394.736603,1647.180176 405.849976,1645.885376 
	C421.697205,1644.038940 437.518311,1641.755005 453.223083,1638.945435 
	C481.760620,1633.840454 508.863770,1624.110840 534.868958,1611.483154 
	C554.211670,1602.090698 572.384277,1590.831055 588.919189,1576.819336 
	C604.906799,1563.271240 620.601746,1549.565308 634.704590,1533.978149 
	C649.766663,1517.330688 663.493591,1499.791382 675.696350,1480.939819 
	C690.847900,1457.532349 702.668579,1432.556641 711.928650,1406.366699 
	C719.281006,1385.572021 724.945862,1364.269897 727.984863,1342.374146 
	C730.185059,1326.521606 733.189697,1310.656250 733.723022,1294.725952 
	C734.524353,1270.788452 735.461548,1246.678589 730.941711,1222.920044 
	C727.761963,1206.205566 724.858398,1189.362183 720.304016,1173.001587 
	C710.608704,1138.173462 695.195679,1105.659790 676.796448,1074.663330 
	C659.355713,1045.281250 639.380066,1017.582397 618.254456,990.720520 
	C606.558838,975.849304 594.954529,960.904785 583.445129,945.889038 
	C570.860352,929.470276 558.454468,912.914429 545.929565,896.449646 
	C535.175476,882.312561 524.359375,868.222717 513.578430,854.106079 
	C506.061737,844.263428 498.600006,834.378418 491.039001,824.569946 
	C479.487335,809.584656 467.783112,794.716370 456.309174,779.672119 
	C446.439331,766.731018 436.901215,753.536987 427.035156,740.592957 
	C414.478333,724.118774 401.638794,707.859863 389.105988,691.367615 
	C376.304535,674.521912 363.826263,657.430603 351.024841,640.584839 
	C336.522705,621.501038 321.742706,602.628418 307.223267,583.557678 
	C291.934052,563.475891 276.856537,543.233093 261.598938,523.127075 
	C249.577133,507.285095 237.384201,491.573029 225.336685,475.750458 
	C211.818146,457.995789 198.398026,440.166199 184.896927,422.398224 
	C173.065079,406.827026 161.128769,391.334991 149.335159,375.734985 
	C139.519699,362.751617 130.003464,349.539734 120.070374,336.648102 
	C104.634842,316.615143 88.890350,296.820496 73.403114,276.826996 
	C59.131550,258.402954 44.930298,239.922638 30.874550,221.333679 
	C16.370947,202.152374 6.292166,180.993423 2.921179,156.935089 
	C2.820210,156.214478 1.664143,155.641708 1.000000,155.000000 
M554.974854,721.460266 
	C557.511536,724.669006 560.101807,727.836975 562.575989,731.093201 
	C576.378601,749.258606 590.219727,767.395325 603.920105,785.637695 
	C620.438110,807.631653 636.836914,829.715027 653.271362,851.771667 
	C668.538330,872.261475 683.802612,892.753418 699.033569,913.270020 
	C711.647583,930.261475 724.259583,947.254761 736.783020,964.312988 
	C748.330383,980.041748 759.889526,995.764832 771.209473,1011.657043 
	C788.954102,1036.568970 804.628906,1062.738770 815.891541,1091.231079 
	C822.952026,1109.092773 829.460205,1127.255981 834.801514,1145.693604 
	C842.031616,1170.651245 844.567322,1196.554199 846.840576,1222.349976 
	C848.334106,1239.298218 848.493347,1256.374390 848.918823,1273.401611 
	C849.083313,1279.983276 848.358093,1286.588989 847.992065,1293.181274 
	C847.699829,1298.443970 847.472168,1303.715454 846.980103,1308.960938 
	C845.725403,1322.335815 844.752380,1335.756226 842.891663,1349.049927 
	C840.933289,1363.041382 838.657043,1377.041138 835.488464,1390.799683 
	C829.129456,1418.411499 820.411682,1445.269287 809.393677,1471.460693 
	C797.966858,1498.624023 784.264526,1524.488647 768.239258,1549.128296 
	C759.476685,1562.600952 750.244019,1575.797729 740.623108,1588.670288 
	C735.186157,1595.944702 728.377075,1602.177734 722.471680,1609.122681 
	C716.867920,1615.712524 711.534180,1622.542480 706.347839,1629.466064 
	C705.537842,1630.547363 705.463806,1633.404419 706.263306,1634.165894 
	C707.334106,1635.185669 709.763550,1635.597656 711.306763,1635.171997 
	C722.654907,1632.042114 734.333313,1629.607788 745.127869,1625.090820 
	C760.955078,1618.468018 776.741211,1611.316040 791.458984,1602.563599 
	C820.990967,1585.001221 847.650818,1563.687622 870.731018,1537.950684 
	C885.391296,1521.602661 898.911194,1504.544434 910.668945,1485.973999 
	C925.740784,1462.169434 938.071594,1437.097290 947.110596,1410.454712 
	C952.405457,1394.848145 957.752808,1379.184204 961.605652,1363.191772 
	C963.883423,1353.736816 963.723877,1343.596069 963.846252,1333.753540 
	C963.933350,1326.742188 962.074585,1319.712036 962.097839,1312.693604 
	C962.227478,1273.601074 962.558350,1234.508179 963.111877,1195.419556 
	C963.198914,1189.272583 961.071655,1184.020996 959.283630,1178.433716 
	C954.459106,1163.357056 951.152893,1147.699951 945.216125,1133.097778 
	C937.733093,1114.692261 929.455627,1096.378052 919.289062,1079.357422 
	C907.989746,1060.440430 894.393921,1042.867188 881.398621,1024.999146 
	C868.565613,1007.354309 855.335205,989.994873 842.096375,972.649597 
	C824.290894,949.321167 806.253479,926.169922 788.420593,902.862366 
	C770.402100,879.312134 752.512085,855.663513 734.565125,832.058533 
	C715.532959,807.026184 696.495605,781.997864 677.469238,756.961060 
	C664.851562,740.357483 652.263367,723.731384 639.636719,707.134583 
	C622.567993,684.698853 605.423950,662.320129 588.407898,639.844604 
	C573.271729,619.852173 558.394104,599.663147 543.169373,579.738892 
	C525.050171,556.026794 506.639984,532.537354 488.436584,508.889374 
	C475.515167,492.103241 462.766876,475.183960 449.868683,458.379822 
	C437.458588,442.211700 424.922028,426.140625 412.502350,409.979828 
	C400.585968,394.473999 388.782745,378.881226 376.866425,363.375336 
	C364.446747,347.214447 351.909271,331.144043 339.500793,314.974579 
	C326.604156,298.169067 313.635712,281.414795 300.997986,264.415558 
	C285.471649,243.530853 269.831390,222.707260 255.089462,201.273239 
	C248.046707,191.033447 243.288223,179.351273 240.941818,166.867355 
	C238.982925,156.445190 238.780121,146.138077 239.780411,135.533875 
	C240.830078,124.406029 233.354797,117.215157 220.084076,117.087669 
	C190.755081,116.805923 161.420044,116.861732 132.091797,117.179558 
	C128.528976,117.218178 124.366058,118.937904 121.556839,121.208954 
	C111.417648,129.405807 112.138916,141.229660 120.078987,151.523422 
	C123.578178,156.059891 127.518425,160.260971 130.939758,164.851791 
	C141.826462,179.459763 152.475082,194.245361 163.380066,208.839478 
	C177.812927,228.154907 192.419769,247.340225 206.917618,266.607208 
	C223.852676,289.113129 240.636078,311.734192 257.699768,334.141937 
	C272.520508,353.604309 287.682098,372.806702 302.615295,392.183899 
	C315.646515,409.093140 328.560089,426.092957 341.542908,443.039581 
	C352.445068,457.270386 363.362549,471.489471 374.291107,485.700012 
	C382.244385,496.041809 390.225800,506.361908 398.196442,516.690369 
	C408.153992,529.593506 418.131226,542.481445 428.066956,555.401428 
	C438.105835,568.455444 448.059479,581.575256 458.132263,594.602966 
	C470.009369,609.964355 482.068665,625.185547 493.876282,640.599792 
	C507.244904,658.051941 520.437500,675.639099 533.675964,693.190674 
	C540.636658,702.419128 547.531860,711.696960 554.974854,721.460266 
M1054.943115,1093.721313 
	C1054.979736,1094.221924 1054.879395,1094.784058 1055.072998,1095.214111 
	C1062.867065,1112.527222 1069.043091,1130.447021 1072.890503,1148.991455 
	C1076.586304,1166.805542 1079.457275,1184.823364 1081.868408,1202.861450 
	C1083.866821,1217.812988 1085.640625,1232.916138 1085.773193,1247.967285 
	C1085.974609,1270.814575 1084.881958,1293.684082 1083.909424,1316.525879 
	C1083.442627,1327.491455 1082.572510,1338.507690 1080.847900,1349.335938 
	C1078.398804,1364.713135 1075.451050,1380.045288 1071.903198,1395.206299 
	C1063.954468,1429.174072 1052.405518,1461.952271 1037.136841,1493.325195 
	C1030.679688,1506.593140 1023.927063,1519.818970 1016.063660,1532.278076 
	C1003.078918,1552.852173 989.539673,1573.117432 975.307190,1592.843994 
	C968.964539,1601.634888 960.177002,1608.628418 952.880188,1616.778687 
	C949.336548,1620.736694 946.552185,1625.405396 943.696777,1629.924561 
	C943.063599,1630.926636 943.012451,1633.281738 943.699463,1633.905029 
	C944.762939,1634.869995 946.875000,1635.556396 948.224548,1635.190186 
	C958.664490,1632.356689 969.420166,1630.173584 979.327209,1626.004639 
	C996.006104,1618.986206 1012.516235,1611.357544 1028.393799,1602.695923 
	C1049.199097,1591.345825 1068.231689,1577.096802 1085.367798,1560.784424 
	C1099.351929,1547.472168 1112.302002,1532.994263 1124.942017,1518.368896 
	C1141.052368,1499.728027 1153.708740,1478.652466 1164.971558,1456.806641 
	C1178.366089,1430.826538 1187.915405,1403.334839 1195.908936,1375.279419 
	C1197.322998,1370.316772 1199.936523,1365.273071 1199.737305,1360.358398 
	C1199.275757,1348.968750 1202.391357,1337.887085 1200.403320,1326.210693 
	C1198.282471,1313.753906 1199.018677,1300.756104 1199.068726,1287.996582 
	C1199.159302,1264.901367 1200.084351,1241.803467 1199.840088,1218.715332 
	C1199.698364,1205.317505 1202.159180,1191.756836 1197.147095,1178.485474 
	C1193.735596,1169.452393 1192.061523,1159.779541 1189.127686,1150.546265 
	C1182.791748,1130.606323 1174.489136,1111.501099 1164.603027,1093.030884 
	C1152.447388,1070.320190 1138.008545,1049.171509 1122.332397,1028.798340 
	C1110.709473,1013.692505 1099.247070,998.463135 1087.707275,983.293274 
	C1079.122559,972.008179 1070.537476,960.723450 1061.936279,949.450806 
	C1049.284668,932.869751 1036.600098,916.313843 1023.964966,899.720337 
	C1013.204041,885.588074 1002.526978,871.392029 991.751831,857.270752 
	C978.204407,839.516174 964.546326,821.845947 951.027649,804.069641 
	C940.283813,789.942139 929.756714,775.649536 918.990417,761.539246 
	C905.436951,743.776062 891.660950,726.182617 878.122192,708.408386 
	C862.827576,688.328918 847.749268,668.084656 832.465454,647.996887 
	C819.137024,630.479187 805.610840,613.112000 792.251770,595.617432 
	C780.884338,580.731079 769.683105,565.717712 758.311523,550.834534 
	C747.024536,536.062134 735.559326,521.425781 724.278625,506.648621 
	C714.101868,493.317596 704.177185,479.793427 693.946106,466.504791 
	C679.812012,448.146942 665.427612,429.981964 651.276733,411.636902 
	C639.635559,396.545380 628.239136,381.265228 616.623352,366.153900 
	C603.898621,349.599762 590.966614,333.204620 578.274048,316.626068 
	C567.089294,302.016998 556.134277,287.232300 545.033875,272.558350 
	C530.388184,253.197739 515.483643,234.028427 501.102264,214.473969 
	C490.769562,200.424530 482.521240,185.175354 478.505402,167.997742 
	C476.062744,157.549515 476.313599,146.897247 477.049988,136.299789 
	C478.010529,122.476921 469.632202,117.299133 457.902100,117.136444 
	C428.241394,116.725090 398.570740,116.917328 368.905212,117.077682 
	C363.680481,117.105919 359.083466,119.312248 356.015106,123.906525 
	C348.427551,135.267410 351.467651,143.637741 359.261200,153.772491 
	C371.486206,169.669952 383.779602,185.516800 395.830841,201.545380 
	C411.185120,221.967209 426.256165,242.601791 441.581421,263.045624 
	C455.265991,281.300751 469.138977,299.414612 482.912750,317.602966 
	C498.250214,337.856232 513.446106,358.218170 528.931580,378.357483 
	C544.348022,398.407013 560.118103,418.184235 575.598083,438.185425 
	C586.166077,451.840088 596.403809,465.750275 606.964478,479.410706 
	C623.429016,500.708008 640.107788,521.839600 656.572388,543.136841 
	C670.726807,561.445679 684.726868,579.873901 698.760925,598.275513 
	C710.319580,613.431396 721.823730,628.628723 733.360413,643.801331 
	C740.857178,653.660767 748.329346,663.539185 755.882874,673.354919 
	C768.516663,689.772339 781.314514,706.064453 793.845093,722.559875 
	C808.814087,742.265259 823.589478,762.117920 838.421143,781.927368 
	C851.981750,800.039124 865.496887,818.184875 879.047607,836.304016 
	C894.166626,856.520264 909.336121,876.698792 924.420837,896.940491 
	C935.798157,912.207153 947.089844,927.537659 958.395691,942.857544 
	C970.571594,959.356323 982.909424,975.740173 994.822937,992.426636 
	C1005.389709,1007.226929 1016.339783,1021.862549 1025.539307,1037.501221 
	C1036.116211,1055.481567 1044.954590,1074.484741 1054.943115,1093.721313 
M1315.007935,1159.395508 
	C1315.217407,1160.008057 1315.529541,1160.605591 1315.621460,1161.235352 
	C1318.094604,1178.169312 1321.019409,1195.055542 1322.859375,1212.058716 
	C1324.523071,1227.434326 1325.351562,1242.926880 1325.870239,1258.390503 
	C1326.208252,1268.461670 1325.585449,1278.589478 1324.945923,1288.663574 
	C1323.810913,1306.546143 1322.839355,1324.463379 1320.847778,1342.259644 
	C1319.185547,1357.113281 1316.900757,1371.982422 1313.587891,1386.548218 
	C1306.584961,1417.338135 1297.054077,1447.341187 1284.398682,1476.381958 
	C1272.497681,1503.691895 1258.375488,1529.716064 1241.916870,1554.478149 
	C1234.094604,1566.247070 1225.431274,1577.454590 1217.491943,1589.149170 
	C1211.908936,1597.372925 1205.171265,1604.314575 1197.857666,1611.022339 
	C1192.170044,1616.239014 1187.953979,1623.101440 1183.364502,1629.435791 
	C1182.560913,1630.544922 1182.461792,1633.360596 1183.257935,1634.137451 
	C1184.311035,1635.165039 1186.736328,1635.591431 1188.276001,1635.177002 
	C1195.119507,1633.334351 1201.845703,1631.060181 1208.636963,1629.017700 
	C1214.350830,1627.299316 1220.401489,1626.351929 1225.766724,1623.892822 
	C1238.888062,1617.879150 1251.895630,1611.552368 1264.592773,1604.692261 
	C1289.301880,1591.342163 1311.277832,1574.103516 1331.477051,1554.758545 
	C1342.413940,1544.283813 1352.238159,1532.615112 1362.229126,1521.192017 
	C1378.478149,1502.613770 1391.409546,1481.729858 1402.917114,1460.012817 
	C1417.453369,1432.579712 1427.115234,1403.257080 1436.041260,1373.591309 
	C1439.806763,1361.077026 1440.179321,1348.482666 1440.802368,1335.838379 
	C1441.194946,1327.870117 1439.077759,1319.805298 1439.100586,1311.786743 
	C1439.208862,1273.874146 1439.673950,1235.962402 1439.987427,1198.050293 
	C1440.016357,1194.559326 1440.544800,1190.892212 1439.687866,1187.608032 
	C1437.121582,1177.772217 1433.947876,1168.095825 1431.074341,1158.338745 
	C1423.816162,1133.693604 1414.315918,1109.957397 1401.245605,1087.818359 
	C1393.007690,1073.864502 1384.433472,1060.051636 1375.103027,1046.814819 
	C1363.475952,1030.319946 1350.930908,1014.471313 1338.752808,998.365906 
	C1329.219604,985.758301 1319.659058,973.171082 1310.078369,960.599487 
	C1298.325439,945.177917 1286.517334,929.798340 1274.773193,914.370178 
	C1264.213501,900.498047 1253.729858,886.567932 1243.172485,872.694092 
	C1230.344727,855.836731 1217.454834,839.026672 1204.629150,822.167847 
	C1193.088257,806.997986 1181.654419,791.746338 1170.070557,776.609436 
	C1156.492676,758.867126 1142.740967,741.257874 1129.182007,723.501282 
	C1116.928223,707.453796 1104.889282,691.242493 1092.653320,675.181335 
	C1076.255737,653.657471 1059.717651,632.240662 1043.319092,610.717468 
	C1029.895386,593.098694 1016.603882,575.379211 1003.223083,557.727600 
	C992.793213,543.968750 982.334778,530.231506 971.854736,516.510803 
	C961.859192,503.424377 951.834229,490.360382 941.795166,477.307281 
	C929.869873,461.801605 917.902649,446.328094 905.978394,430.821625 
	C896.836182,418.932861 887.757446,406.995300 878.604980,395.114471 
	C867.759033,381.035156 856.826904,367.022095 846.001343,352.927185 
	C835.877441,339.745850 825.898438,326.453156 815.756897,313.285461 
	C802.916016,296.612854 789.898804,280.075714 777.102173,263.369415 
	C767.105347,250.318329 757.339417,237.090530 747.451477,223.955826 
	C736.877319,209.909515 727.005615,195.429962 721.306030,178.610840 
	C716.746521,165.156204 714.462952,151.453217 716.856140,137.123779 
	C717.787476,131.547821 716.275696,126.183464 711.607849,122.006721 
	C707.101440,117.974365 701.729004,117.078415 696.180237,117.055206 
	C667.682983,116.936028 639.167175,117.590714 610.695312,116.732742 
	C597.855103,116.345818 587.272095,132.127045 592.318481,142.497604 
	C594.700806,147.393280 597.750977,152.044022 601.023132,156.412842 
	C614.895081,174.934280 629.041626,193.249908 642.939941,211.751831 
	C658.286255,232.181259 673.385742,252.796219 688.750244,273.211792 
	C703.644958,293.003113 718.757385,312.630524 733.740601,332.355469 
	C743.984924,345.841858 754.124878,359.407623 764.397278,372.872467 
	C774.283020,385.830597 784.268555,398.712524 794.229248,411.613312 
	C804.595581,425.039551 814.981079,438.450958 825.364685,451.863831 
	C835.245972,464.627808 845.161560,477.365265 855.014709,490.150940 
	C866.457947,505.000031 877.842468,519.894287 889.265503,534.759033 
	C900.188232,548.972656 911.138306,563.165222 922.056396,577.382324 
	C932.086365,590.442932 942.054077,603.551392 952.113586,616.589172 
	C965.963013,634.539001 979.966187,652.370911 993.730774,670.385254 
	C1008.066528,689.147034 1022.156738,708.096313 1036.428467,726.907410 
	C1051.500000,746.772888 1066.741577,766.509583 1081.757812,786.416565 
	C1098.520752,808.639343 1115.143799,830.967896 1131.771484,853.292297 
	C1146.549683,873.133423 1161.286865,893.005249 1175.975220,912.912903 
	C1189.399536,931.107544 1202.773193,949.339844 1216.097290,967.607910 
	C1229.127197,985.472839 1242.426636,1003.156494 1254.947144,1021.373657 
	C1268.095215,1040.504272 1279.459595,1060.704102 1289.065186,1081.911255 
	C1300.256226,1106.618286 1309.112793,1132.056519 1315.007935,1159.395508 
z"/>

<path fill="#D6D5D8" opacity="1.000000" stroke="none" 
	d="
M1215.609253,1758.119141 
	C1226.679565,1762.952759 1237.502930,1767.444946 1248.007812,1772.587891 
	C1271.079712,1783.882690 1293.961182,1795.565186 1316.976074,1806.977539 
	C1334.732666,1815.782349 1352.610352,1824.343506 1370.349487,1833.183228 
	C1374.266113,1835.134888 1376.060425,1838.764038 1374.876221,1843.133301 
	C1373.759644,1847.252563 1371.880493,1850.262451 1366.453003,1850.113525 
	C1344.380493,1849.507202 1322.295776,1849.344116 1300.215820,1848.996826 
	C1279.967041,1848.678467 1259.718872,1848.059692 1239.470093,1848.044922 
	C1116.019653,1847.955078 992.569214,1847.950928 869.119080,1848.132324 
	C862.320068,1848.142334 855.085449,1848.468262 849.679565,1853.706543 
	C643.645752,1854.000000 437.291534,1854.000000 230.468658,1854.000000 
	C230.365509,1853.136108 230.515808,1852.059692 231.128265,1851.439819 
	C243.627579,1838.788330 256.176788,1826.242188 270.619446,1815.672119 
	C292.350006,1799.768311 313.847961,1783.539185 335.195740,1767.124390 
	C340.968140,1762.685913 345.843231,1757.080322 351.481995,1752.005127 
	C356.222198,1764.861450 365.926514,1769.042847 378.671661,1769.042480 
	C631.887207,1769.035156 885.102783,1769.093262 1138.318359,1769.184448 
	C1144.608643,1769.186768 1150.972778,1770.443970 1157.169556,1769.812012 
	C1164.592407,1769.055176 1171.918213,1767.079834 1179.195068,1765.266602 
	C1182.925903,1764.336914 1185.958618,1762.215942 1184.781372,1756.431641 
	C1195.266357,1761.217896 1205.199341,1762.017822 1215.609253,1758.119141 
z"/>
<path fill="#F7C80E" opacity="1.000000" stroke="none" 
	d="
M1558.000000,74.531342 
	C1557.334595,75.632874 1556.270142,76.156136 1556.061890,76.914581 
	C1549.778809,99.792694 1535.185669,114.915749 1512.617676,121.526474 
	C1499.930420,125.242851 1487.048462,123.249130 1474.736938,118.311905 
	C1452.249023,109.293655 1442.264160,91.949570 1442.113281,68.475540 
	C1442.062012,60.491539 1442.514893,52.315235 1444.267212,44.573055 
	C1445.502075,39.116714 1448.634277,33.712505 1452.125000,29.222305 
	C1459.466797,19.778353 1467.520386,10.907519 1480.445801,8.965636 
	C1485.447632,8.214166 1489.629272,5.739243 1492.314941,1.260758 
	C1501.020874,1.000000 1510.041870,1.000000 1519.217041,1.258853 
	C1526.232788,8.164403 1533.197388,14.708796 1539.928345,21.485157 
	C1547.428223,29.035664 1553.589111,37.471294 1556.136597,48.094345 
	C1556.238892,48.520653 1557.355835,48.703674 1558.000000,49.000019 
	C1558.000000,57.354233 1558.000000,65.708466 1558.000000,74.531342 
z"/>
<path fill="#F7C80E" opacity="1.000000" stroke="none" 
	d="
M0.999997,1701.444092 
	C1.664117,1700.355469 2.859185,1699.754272 2.915633,1699.060303 
	C4.960945,1673.915771 23.069527,1656.560913 46.221088,1651.103882 
	C64.132599,1646.881836 81.267967,1649.137573 96.531738,1659.993042 
	C109.192009,1668.996826 116.618896,1681.277954 119.113548,1696.857056 
	C122.201675,1716.142700 116.889877,1733.241821 105.695068,1748.332275 
	C94.850906,1762.950317 77.418175,1770.789795 57.103497,1767.178589 
	C42.456242,1764.574829 29.713768,1758.513306 19.590975,1747.877930 
	C9.991249,1737.792114 3.693126,1725.762329 2.947457,1711.398071 
	C2.893983,1710.368042 2.138319,1709.374390 1.354571,1708.681885 
	C1.000000,1706.629395 1.000000,1704.258911 0.999997,1701.444092 
z"/>

</svg>